<svg width="34" height="36" viewBox="0 0 34 36" xmlns="http://www.w3.org/2000/svg">
<path d="M29.3163 13.6891V12.305C29.3163 8.99244 28.144 5.91429 26.0188 3.63025C23.8407 1.28571 20.8457 0 17.5785 0H16.4365C13.1692 0 10.1743 1.28571 7.99612 3.63025C5.87091 5.91429 4.69864 8.99244 4.69864 12.305V13.6891C2.11965 13.863 0.0700684 16.0109 0.0700684 18.6353V20.7983C0.0700684 23.5286 2.2936 25.7521 5.02385 25.7521H7.81461C8.31377 25.7521 8.72217 25.3437 8.72217 24.8445V14.5815C8.72217 14.0824 8.31377 13.674 7.81461 13.674H6.51377V12.305C6.51377 6.32269 10.7793 1.81513 16.4289 1.81513H17.5709C23.2281 1.81513 27.486 6.32269 27.486 12.305V13.674H26.1852C25.686 13.674 25.2776 14.0824 25.2776 14.5815V24.837C25.2776 25.3361 25.686 25.7445 26.1852 25.7445H27.4558C27.0852 30.479 23.8255 31.5756 22.3129 31.8252C21.897 30.5471 20.6944 29.6244 19.2802 29.6244H17.0112C15.2566 29.6244 13.8272 31.0538 13.8272 32.8084C13.8272 34.563 15.2566 36 17.0112 36H19.2877C20.7549 36 21.9877 35.0017 22.3583 33.6555C23.0995 33.5496 24.2717 33.2849 25.4365 32.6042C27.0776 31.6437 29.0213 29.6849 29.2785 25.737C31.8726 25.5782 33.9297 23.4227 33.9297 20.7908V18.6277C33.9373 16.0109 31.8953 13.8555 29.3163 13.6891ZM6.92217 23.9294H5.03898C3.30704 23.9294 1.90032 22.5227 1.90032 20.7908V18.6277C1.90032 16.8958 3.30704 15.4891 5.03898 15.4891H6.92217V23.9294ZM19.2877 34.1849H17.0112C16.2549 34.1849 15.6423 33.5723 15.6423 32.816C15.6423 32.0597 16.2549 31.4471 17.0112 31.4471H19.2877C20.044 31.4471 20.6566 32.0597 20.6566 32.816C20.6566 33.5723 20.044 34.1849 19.2877 34.1849ZM32.1222 20.7908C32.1222 22.5227 30.7154 23.9294 28.9835 23.9294H27.1003V15.4891H28.9835C30.7154 15.4891 32.1222 16.8958 32.1222 18.6277V20.7908Z"/>
</svg>
