<svg width="34" height="36" viewBox="0 0 34 36" xmlns="http://www.w3.org/2000/svg">
<path d="M33.5564 8.48713C33.5564 8.35036 33.526 8.21359 33.4652 8.08442C33.3436 7.82609 33.1081 7.65133 32.8497 7.59814L17.3723 0.0911777C17.1216 -0.0303926 16.8253 -0.0303926 16.5745 0.0911777L0.945141 7.66653C0.641215 7.81089 0.443663 8.11482 0.428467 8.45673V8.46433C0.428467 8.47193 0.428467 8.47953 0.428467 8.49472V27.5053C0.428467 27.8548 0.626019 28.1739 0.945141 28.3259L16.5745 35.9012C16.5821 35.9012 16.5821 35.9012 16.5897 35.9088C16.6125 35.9164 16.6353 35.924 16.6581 35.9392C16.6657 35.9392 16.6733 35.9468 16.6885 35.9468C16.7113 35.9544 16.7341 35.962 16.7569 35.9696C16.7645 35.9696 16.7721 35.9772 16.7797 35.9772C16.8025 35.9848 16.8329 35.9848 16.8557 35.9924C16.8633 35.9924 16.8708 35.9924 16.8784 35.9924C16.9088 35.9924 16.9468 36 16.9772 36C17.0076 36 17.0456 36 17.076 35.9924C17.0836 35.9924 17.0912 35.9924 17.0988 35.9924C17.1216 35.9924 17.152 35.9848 17.1748 35.9772C17.1824 35.9772 17.19 35.9696 17.1976 35.9696C17.2204 35.962 17.2432 35.9544 17.266 35.9468C17.2736 35.9468 17.2811 35.9392 17.2963 35.9392C17.3191 35.9316 17.3419 35.924 17.3647 35.9088C17.3723 35.9088 17.3723 35.9088 17.3799 35.9012L33.0549 28.3031C33.3664 28.1511 33.5716 27.832 33.5716 27.4825V8.50992C33.5564 8.50232 33.5564 8.49472 33.5564 8.48713ZM16.9696 1.92233L30.5247 8.49472L25.5327 10.9185L11.9776 4.34614L16.9696 1.92233ZM16.9696 15.0671L3.41454 8.49472L9.88815 5.35669L23.4432 11.9291L16.9696 15.0671ZM2.25202 9.96117L16.0578 16.6551V33.6218L2.25202 26.9278V9.96117ZM17.8814 33.6218V16.6551L24.3626 13.5095V17.9468C24.3626 18.4483 24.7729 18.8586 25.2744 18.8586C25.7759 18.8586 26.1862 18.4483 26.1862 17.9468V12.6205L31.7328 9.93077V26.8974L17.8814 33.6218Z"/>
</svg>
