<svg width="30" height="36" viewBox="0 0 30 36" xmlns="http://www.w3.org/2000/svg">
<path d="M29.3822 31.201L27.3105 7.85427C27.2733 7.39226 26.8858 7.04202 26.4163 7.04202H22.0495C22.0421 3.15959 18.8825 0 15 0C11.1176 0 7.95802 3.15959 7.95056 7.04202H3.58377C3.12175 7.04202 2.73425 7.39226 2.68954 7.85427L0.61792 31.201C0.61792 31.2308 0.61792 31.2532 0.61792 31.283C0.61792 33.8837 3.00997 36 5.94601 36H24.0541C26.9901 36 29.3822 33.8837 29.3822 31.283C29.3822 31.2532 29.3822 31.2308 29.3822 31.201ZM15 1.78845C17.8988 1.78845 20.2536 4.14324 20.2611 7.04202H9.73901C9.74646 4.14324 12.1013 1.78845 15 1.78845ZM24.0541 34.2041H5.94601C4.00852 34.2041 2.42873 32.9149 2.40637 31.3128L4.40347 8.83047H7.95056V11.9677C7.95056 12.4595 8.35296 12.8619 8.84479 12.8619C9.33661 12.8619 9.73901 12.4595 9.73901 11.9677V8.83047H20.2611V11.9677C20.2611 12.4595 20.6635 12.8619 21.1553 12.8619C21.6471 12.8619 22.0495 12.4595 22.0495 11.9677V8.83047H25.5966L27.5937 31.3202C27.5713 32.9149 25.9916 34.2041 24.0541 34.2041Z"/>
<path d="M18.7185 18.6148L13.4426 23.8908L11.289 21.7372C10.9388 21.3869 10.3724 21.3869 10.0222 21.7372C9.67196 22.0874 9.67196 22.6537 10.0222 23.004L12.8092 25.791C12.9806 25.9624 13.2116 26.0518 13.4426 26.0518C13.6736 26.0518 13.8972 25.9624 14.076 25.791L19.9853 19.8816C20.3356 19.5314 20.3356 18.9651 19.9853 18.6148C19.6351 18.272 19.0688 18.272 18.7185 18.6148Z"/>
</svg>
